<svg width="76" height="73" viewBox="0 0 76 73" fill="none" xmlns="http://www.w3.org/2000/svg">
<path d="M0 0V73H76V0H0ZM3.16587 3.11908H72.8317V69.8786H3.16587V3.11908ZM26.3601 41.3389L23.8498 50.6868C23.7999 50.9559 23.7001 51.0027 23.3914 51.0027H18.7411C18.4205 51.0027 18.3706 50.9044 18.4205 50.5511L27.4123 19.5241C27.5737 18.9625 27.6711 18.4641 27.721 16.9151C27.721 16.7068 27.8326 16.6109 27.9941 16.6109H34.6251C34.8365 16.6109 34.9457 16.66 34.9956 16.9151L45.0775 50.6002C45.1392 50.8552 45.0775 51.0027 44.8186 51.0027H39.5984C39.3253 51.0027 39.178 50.9418 39.1281 50.7336L36.5061 41.3366H26.3506L26.3601 41.3389ZM35.1927 36.2683C34.3021 32.8193 32.2121 25.2638 31.4331 21.6066H31.3714C30.704 25.2498 29.0201 31.4294 27.7234 36.2683H35.1927ZM49.4428 18.9274C49.4428 16.9174 50.8535 15.7334 52.6846 15.7334C54.6155 15.7334 55.9265 17.0251 55.9265 18.9274C55.9265 20.9865 54.5656 22.1214 52.6229 22.1214C50.73 22.1214 49.4309 20.9888 49.4309 18.9274H49.4428ZM49.8014 26.0196C49.8014 25.7763 49.9011 25.678 50.16 25.678H55.1333C55.4183 25.678 55.5156 25.7763 55.5156 26.043V50.6727C55.5156 50.9278 55.4657 51.0261 55.1451 51.0261H50.2455C49.9249 51.0261 49.8251 50.8786 49.8251 50.6236V26.0173L49.8014 26.0196Z" fill="#F2C94C"/>
</svg>
