<svg width="76" height="89" viewBox="0 0 76 89" fill="none" xmlns="http://www.w3.org/2000/svg">
<path fill-rule="evenodd" clip-rule="evenodd" d="M63.3333 0H12.6667C9.30726 0 6.08544 1.33452 3.70998 3.70998C1.33452 6.08544 0 9.30726 0 12.6667V76C0 79.3594 1.33452 82.5812 3.70998 84.9567C6.08544 87.3321 9.30726 88.6667 12.6667 88.6667H63.3333C66.6927 88.6667 69.9146 87.3321 72.29 84.9567C74.6655 82.5812 76 79.3594 76 76V12.6667C76 9.30726 74.6655 6.08544 72.29 3.70998C69.9146 1.33452 66.6927 0 63.3333 0ZM29.4247 29.4247C29.7191 29.1302 30.0686 28.8967 30.4533 28.7374C30.838 28.578 31.2503 28.496 31.6667 28.496C32.083 28.496 32.4953 28.578 32.88 28.7374C33.2647 28.8967 33.6142 29.1302 33.9087 29.4247C34.2031 29.7191 34.4366 30.0686 34.596 30.4533C34.7553 30.838 34.8373 31.2503 34.8373 31.6667C34.8373 32.083 34.7553 32.4953 34.596 32.88C34.4366 33.2647 34.2031 33.6142 33.9087 33.9087L23.4777 44.3333L33.9087 54.758C34.5033 55.3526 34.8373 56.1591 34.8373 57C34.8373 57.8409 34.5033 58.6474 33.9087 59.242C33.3141 59.8366 32.5076 60.1707 31.6667 60.1707C30.8258 60.1707 30.0193 59.8366 29.4247 59.242L16.758 46.5753C16.4631 46.2812 16.2291 45.9317 16.0695 45.547C15.9098 45.1623 15.8277 44.7499 15.8277 44.3333C15.8277 43.9168 15.9098 43.5044 16.0695 43.1197C16.2291 42.7349 16.4631 42.3855 16.758 42.0913L29.4247 29.4247ZM46.5753 29.4247C46.2809 29.1302 45.9314 28.8967 45.5467 28.7374C45.162 28.578 44.7497 28.496 44.3333 28.496C43.917 28.496 43.5047 28.578 43.12 28.7374C42.7353 28.8967 42.3858 29.1302 42.0913 29.4247C41.7969 29.7191 41.5634 30.0686 41.404 30.4533C41.2447 30.838 41.1627 31.2503 41.1627 31.6667C41.1627 32.083 41.2447 32.4953 41.404 32.88C41.5634 33.2647 41.7969 33.6142 42.0913 33.9087L52.5223 44.3333L42.0913 54.758C41.4967 55.3526 41.1627 56.1591 41.1627 57C41.1627 57.8409 41.4967 58.6474 42.0913 59.242C42.6859 59.8366 43.4924 60.1707 44.3333 60.1707C45.1742 60.1707 45.9807 59.8366 46.5753 59.242L59.242 46.5753C59.5369 46.2812 59.7709 45.9317 59.9305 45.547C60.0902 45.1623 60.1723 44.7499 60.1723 44.3333C60.1723 43.9168 60.0902 43.5044 59.9305 43.1197C59.7709 42.7349 59.5369 42.3855 59.242 42.0913L46.5753 29.4247Z" fill="#F2C94C"/>
</svg>
