<svg width="82" height="88" viewBox="0 0 82 88" fill="none" xmlns="http://www.w3.org/2000/svg">
<path d="M60.1333 44C72.16 44 82 34.1 82 22C82 9.9 72.16 0 60.1333 0C48.1067 0 38.2667 9.9 38.2667 22C38.2667 34.1 48.1067 44 60.1333 44ZM54.6667 16.5V5.5H65.6V16.5H76.5333V27.5H65.6V38.5H54.6667V27.5H43.7333V16.5H54.6667ZM32.8 22C32.8 13.2 37.1733 5.5 43.7333 0H38.2667C16.9467 0 0 4.95 0 11C0 16.5 14.2133 20.9 32.8 22ZM38.2667 71.5C16.9467 71.5 0 66.55 0 60.5V77C0 83.05 16.9467 88 38.2667 88C59.5867 88 76.5333 83.05 76.5333 77V60.5C76.5333 66.55 59.5867 71.5 38.2667 71.5ZM53.5733 48.4C48.6533 48.95 43.1867 49.5 38.2667 49.5C16.9467 49.5 0 44.55 0 38.5V55C0 61.05 16.9467 66 38.2667 66C59.5867 66 76.5333 61.05 76.5333 55V44C71.6133 47.85 66.1467 49.5 60.1333 49.5C57.9467 49.5 55.76 48.95 53.5733 48.4ZM38.2667 44H43.7333C38.2667 40.15 34.44 34.1 33.3467 27.5C14.76 26.95 0 22 0 16.5V33C0 39.05 16.9467 44 38.2667 44Z" fill="#F2C94C"/>
</svg>
