<svg width="90" height="72" viewBox="0 0 90 72" fill="none" xmlns="http://www.w3.org/2000/svg">
<path d="M87.75 49.5H85.5V34.2984C85.5 32.5125 84.7828 30.7969 83.5172 29.5312L69.4688 15.4828C68.2031 14.2172 66.4875 13.5 64.7016 13.5H58.5V6.75C58.5 3.02344 55.4766 0 51.75 0H15.75C12.0234 0 9 3.02344 9 6.75V13.5H1.125C0.50625 13.5 0 14.0063 0 14.625V16.875C0 17.4937 0.50625 18 1.125 18H39.375C39.9938 18 40.5 18.5063 40.5 19.125V21.375C40.5 21.9937 39.9938 22.5 39.375 22.5H5.625C5.00625 22.5 4.5 23.0063 4.5 23.625V25.875C4.5 26.4937 5.00625 27 5.625 27H34.875C35.4938 27 36 27.5063 36 28.125V30.375C36 30.9937 35.4938 31.5 34.875 31.5H1.125C0.50625 31.5 0 32.0062 0 32.625V34.875C0 35.4938 0.50625 36 1.125 36H30.375C30.9937 36 31.5 36.5062 31.5 37.125V39.375C31.5 39.9938 30.9937 40.5 30.375 40.5H9V58.5C9 65.9531 15.0469 72 22.5 72C29.9531 72 36 65.9531 36 58.5H54C54 65.9531 60.0469 72 67.5 72C74.9531 72 81 65.9531 81 58.5H87.75C88.9875 58.5 90 57.4875 90 56.25V51.75C90 50.5125 88.9875 49.5 87.75 49.5ZM22.5 65.25C18.7734 65.25 15.75 62.2266 15.75 58.5C15.75 54.7734 18.7734 51.75 22.5 51.75C26.2266 51.75 29.25 54.7734 29.25 58.5C29.25 62.2266 26.2266 65.25 22.5 65.25ZM67.5 65.25C63.7734 65.25 60.75 62.2266 60.75 58.5C60.75 54.7734 63.7734 51.75 67.5 51.75C71.2266 51.75 74.25 54.7734 74.25 58.5C74.25 62.2266 71.2266 65.25 67.5 65.25ZM78.75 36H58.5V20.25H64.7016L78.75 34.2984V36Z" fill="#F2C94C"/>
</svg>
