<svg width="63" height="77" viewBox="0 0 63 77" fill="none" xmlns="http://www.w3.org/2000/svg">
<path d="M0 0L5.73336 69.3L31.462 77L57.2577 69.2904L63 0H0.00446544H0ZM52.3415 64.8821L31.6049 71.0758V71.1095L31.5513 71.0902L31.4978 71.1095V71.0758L10.7612 64.8821L5.85839 5.66913H57.2443L52.3415 64.8821ZM41.1784 39.8668L40.2675 50.8874L31.462 53.4476L22.6789 50.897L22.1163 44.1114H14.1994L15.3024 57.4612L31.4933 62.2882L47.6351 57.4612L49.8008 31.3679H21.058L20.3391 22.6621H50.5152L51.2207 14.1632H11.7168L13.8467 39.8668H41.1784Z" fill="#F2C94C"/>
</svg>
