<svg width="75" height="75" viewBox="0 0 75 75" fill="none" xmlns="http://www.w3.org/2000/svg">
<path d="M0 0V75H75V0H0ZM40.815 58.495C40.815 65.795 36.535 69.115 30.29 69.115C24.655 69.115 21.3825 66.195 19.72 62.675L25.46 59.2C26.5675 61.14 27.575 62.8 29.99 62.8C32.305 62.8 33.765 61.9175 33.765 58.375V34.425H40.815V58.495ZM57.48 69.115C50.935 69.115 46.705 65.995 44.6425 61.915L50.38 58.5975C51.89 61.0425 53.855 62.8725 57.33 62.8725C60.2475 62.8725 62.0875 61.4125 62.0875 59.3825C62.0875 56.9675 60.1725 56.1075 56.9525 54.72L55.2025 53.945C50.1175 51.7825 46.745 49.0625 46.745 43.32C46.745 38.0375 50.755 34.0075 57.065 34.0075C61.545 34.0075 64.765 35.57 67.085 39.6425L61.61 43.155C60.41 41.005 59.095 40.13 57.08 40.13C55.02 40.13 53.7 41.435 53.7 43.155C53.7 45.285 55 46.125 58.025 47.43L59.7825 48.205C65.775 50.755 69.15 53.38 69.15 59.28C69.1675 65.64 64.185 69.105 57.4875 69.105L57.48 69.115Z" fill="#F2C94C"/>
</svg>
