<svg width="80" height="82" viewBox="0 0 80 82" fill="none" xmlns="http://www.w3.org/2000/svg">
<path d="M79.9588 18.552C79.9846 18.6596 80 18.7801 80 18.8851V36.4898C80.0006 36.7145 79.9413 36.9353 79.8283 37.1298C79.7153 37.3243 79.5525 37.4854 79.3565 37.5969L64.5158 46.1122V62.9686C64.5164 63.1933 64.4571 63.4141 64.3441 63.6086C64.2311 63.803 64.0683 63.9642 63.8723 64.0756L32.8936 81.8264C32.8213 81.8663 32.7444 81.8973 32.6646 81.9186L32.5848 81.9596C32.3693 82.0135 32.1439 82.0135 31.9284 81.9596C31.8959 81.95 31.8648 81.9362 31.8358 81.9186C31.7614 81.8957 31.6898 81.8648 31.6222 81.8264L0.656328 64.0756C0.459026 63.9646 0.29452 63.8039 0.179319 63.6096C0.064119 63.4153 0.00227713 63.1942 0 62.9686V10.1571C0 10.0495 0.0257384 9.92904 0.0540506 9.82398C0.0669198 9.78298 0.0797889 9.75735 0.095232 9.71635L0.175021 9.51647C0.18789 9.47547 0.229071 9.44985 0.25481 9.40885L0.37578 9.24741C0.419109 9.22077 0.459636 9.18987 0.49675 9.15515C0.550801 9.11415 0.589409 9.07572 0.643459 9.04753L16.1277 0.170869C16.3235 0.0589133 16.5453 0 16.7711 0C16.9969 0 17.2188 0.0589133 17.4146 0.170869L32.9117 9.04753C32.9657 9.07315 33.0043 9.11415 33.0455 9.15515L33.1793 9.24741C33.2189 9.29879 33.255 9.35272 33.2874 9.40885C33.3132 9.43447 33.3544 9.47547 33.3801 9.51647L33.4599 9.71635C33.4727 9.75735 33.5011 9.78298 33.5011 9.82398C33.54 9.93063 33.5584 10.0437 33.5551 10.1571V43.1371L46.45 35.7441V18.8877C46.4549 18.7363 46.4871 18.587 46.5453 18.4469L46.6251 18.2471C46.6508 18.1933 46.692 18.1676 46.7177 18.1266C46.7589 18.0728 46.7846 18.019 46.8258 17.9806C46.867 17.9421 46.9185 17.9139 46.9597 17.8883C46.9983 17.8456 47.0435 17.8093 47.0935 17.7807L62.5906 8.90402C62.7842 8.78575 63.0069 8.72314 63.234 8.72314C63.4612 8.72314 63.6839 8.78575 63.8775 8.90402L79.3617 17.7807C79.4157 17.8063 79.4543 17.8473 79.5084 17.8883C79.5496 17.9139 79.5882 17.9421 79.6294 17.9806C79.6705 18.019 79.7092 18.0728 79.7503 18.1266C79.7761 18.1676 79.8173 18.1933 79.8301 18.2471C79.8713 18.3137 79.8842 18.3803 79.9099 18.4469C79.9357 18.4726 79.9511 18.5136 79.964 18.5546L79.9588 18.552ZM77.4107 35.7416V21.1146L71.9954 24.2101L64.5158 28.5075V43.1345L77.4107 35.7416ZM61.942 62.2204V47.578L54.5679 51.7549L33.5474 63.7143V78.49L61.942 62.2204ZM2.56869 12.384V62.2204L30.9607 78.49V63.7143L16.1199 55.345C16.0659 55.3194 16.0273 55.2784 15.9861 55.2374C15.9449 55.2118 15.8934 55.1836 15.8651 55.1452H15.8523C15.8111 55.1042 15.7853 55.0529 15.7442 55.0119C15.7184 54.9709 15.6772 54.9325 15.6515 54.8787C15.6215 54.8283 15.599 54.774 15.5846 54.7172C15.5588 54.6634 15.5305 54.625 15.5177 54.5712C15.5048 54.5173 15.4919 54.4507 15.4919 54.3841C15.4791 54.3303 15.4662 54.2918 15.4662 54.238V19.7769L7.98662 15.4795L2.56869 12.384ZM16.766 2.7616L3.87105 10.1545L16.766 17.5475L29.6609 10.1545L16.766 2.7616ZM23.4811 48.9156L30.9607 44.6182V12.3865L25.5453 15.4821L18.0529 19.7795V52.0112L23.4811 48.9156ZM63.2289 11.4896L50.3185 18.8826L63.2289 26.2755L76.1238 18.8826L63.2289 11.4896ZM61.942 28.5075L49.0316 21.1146V35.7416L56.5112 40.039L61.9394 43.1345L61.942 28.5075ZM32.2502 61.4875L60.6293 45.3639L47.7472 37.971L19.381 54.2278L32.2502 61.4875Z" fill="#F2C94C"/>
</svg>
