<svg width="90" height="68" viewBox="0 0 90 68" fill="none" xmlns="http://www.w3.org/2000/svg">
<path d="M29.9395 51.4498C29.5176 48.5368 28.3574 46.1707 25.5414 45.0265C24.4393 44.58 23.4848 43.7653 22.3985 43.2519C21.1645 42.6659 19.9094 42.1079 18.6069 41.7451C17.6207 41.4661 16.7031 41.9349 16.1178 42.8501C15.5641 43.7095 15.9649 44.5186 16.4289 45.2385C16.951 46.0477 17.5311 46.8178 18.1164 47.5768C19.0867 48.838 20.1151 50.0489 21.059 51.3271C21.9608 52.5492 22.7307 53.9053 22.5988 55.5236C22.3088 59.0728 20.7901 62.0139 18.3432 64.4078C18.0742 64.6645 17.5996 64.8486 17.2516 64.8152C15.6906 64.6366 14.2721 64.0116 13.1277 62.8564C11.8147 61.5338 12.0151 59.9769 13.5865 59.0114C13.961 58.7826 14.3512 58.5706 14.694 58.2915C15.6537 57.527 15.9754 56.2212 15.4533 55.0883C15.2055 54.5414 14.926 53.9499 14.5147 53.5537C12.5055 51.6172 10.533 49.6192 8.38148 47.856C3.16587 43.57 0.487136 37.9003 0.0756318 31.0361C-0.388431 23.4129 1.28325 16.2978 5.0854 9.78513C6.52505 7.31296 8.202 4.9578 10.7754 3.73585C12.5262 2.90435 14.4458 2.43559 16.318 1.9166C21.4703 0.482411 26.6698 -0.59463 32.033 0.365219C36.6526 1.18555 40.033 3.70237 41.5834 8.50719C42.6012 11.649 42.8438 14.8969 42.5274 18.2231C41.9051 24.758 37.3436 30.6008 31.3949 32.3308C28.8162 33.0786 27.4082 32.66 25.8578 30.3888C24.7451 28.7537 23.8223 26.9735 22.8256 25.2489C22.6779 24.9922 22.5725 24.6965 22.4459 24.423C22.3246 24.1496 22.1928 23.8873 22.0662 23.6138C22.4406 26.4487 23.0629 29.1778 24.5237 31.6107C25.3147 32.9333 26.3694 33.9099 27.9145 34.055C33.5992 34.5963 38.3982 32.6208 41.8049 27.7823C45.6176 22.369 46.4562 16.1412 45.3539 9.58405C45.1377 8.28937 44.7738 7.02259 44.5154 5.73349C44.3414 4.90199 44.6526 4.28814 45.4277 3.99795C45.7863 3.8696 46.1555 3.76357 46.5141 3.68544C51.1654 2.62514 55.8693 2.27357 60.6102 2.7814C65.9892 3.35061 71.0781 4.91315 75.6291 8.07749C82.7537 13.0386 87.1676 20.0981 89.567 28.6365C89.915 29.8754 89.9678 31.2314 89.9994 32.5375C90.0205 33.408 89.4931 33.6368 88.8656 33.0899C88.1748 32.4928 87.542 31.812 86.9461 31.1088C86.3924 30.4448 85.9494 29.6858 85.4115 28.9883C84.9949 28.4414 84.631 28.5251 84.4306 29.2059C84.3041 29.6188 84.1933 30.0262 84.0826 30.4392C82.8381 35.138 80.8763 39.4238 77.6965 43.0346C77.2535 43.5424 76.858 44.2958 76.8052 44.9655C76.6681 46.8182 76.5679 48.71 76.7367 50.5571C77.0847 54.5251 77.6279 58.4759 78.0498 62.4382C78.2871 64.676 77.6068 65.993 75.6187 66.7689C74.2213 67.3102 72.7236 67.7064 71.247 67.818C68.8951 67.991 66.522 67.8683 64.1595 67.8683C64.0963 65.078 64.323 62.3378 61.8445 60.8422C62.3244 58.7718 62.8781 56.8075 63.2103 54.7985C63.4845 53.1299 63.2525 51.4893 62.1451 50.122C61.1062 48.8329 59.8037 48.4814 58.6117 49.218C55.0205 51.4335 51.2867 51.4446 47.4846 49.9937C45.7391 49.324 44.5209 49.7035 43.5557 51.3888C42.5168 53.2025 42.0791 55.2394 42.1951 57.2988C42.3428 59.8937 42.7699 62.4607 43.0969 65.0445C43.2762 66.4899 43.1233 66.8638 41.768 67.2321C38.7568 68.0413 35.693 68.1306 32.6131 67.8683C32.4496 67.8515 32.2862 67.779 32.1807 67.7511C32.0278 65.0445 32.2967 62.2318 29.2487 60.792C30.5987 57.7618 30.4141 54.6199 29.95 51.4781L29.9395 51.4502V51.4498ZM11.7354 40.8301C12.1836 40.3837 12.5422 39.6861 12.6688 39.0443C12.9852 37.4372 11.8461 35.2831 10.5278 34.686C9.8264 34.3623 9.21468 34.4795 8.71898 35.071C7.51136 36.5164 6.31956 37.9785 5.13286 39.4463C4.93247 39.6974 4.75317 39.9932 4.61079 40.289C4.13618 41.2544 4.41567 41.9576 5.42817 42.2198C6.03989 42.3817 6.67271 42.4152 7.30024 42.51C8.93501 42.3426 10.517 42.0524 11.7352 40.8359V40.8303L11.7354 40.8301ZM11.8725 24.7636C11.8672 23.614 10.9602 22.6542 9.88968 22.6486C8.78753 22.643 7.83831 23.6866 7.87523 24.8362C7.92269 25.9913 8.82972 26.9177 9.91605 26.8954C11.0129 26.8786 11.8883 25.9299 11.8778 24.7692L11.8725 24.7636Z" fill="#F2C94C"/>
</svg>
