<svg width="76" height="74" viewBox="0 0 76 74" fill="none" xmlns="http://www.w3.org/2000/svg">
<path d="M0 0V74H76V0H0ZM3.16587 3.1618H72.8317V70.8358H3.16587V3.1618ZM18.3682 17.3318C18.3682 17.1207 18.8148 16.9618 19.0736 16.9618C21.7938 16.8469 24.5163 16.7931 27.2389 16.8005C36.0216 16.8005 39.4345 21.6061 39.4345 27.7589C39.4345 35.8022 33.5968 39.2486 26.4456 39.2486C25.2344 39.2486 24.8259 39.1869 23.9851 39.1869V51.3432C23.9851 51.6017 23.8854 51.7132 23.6265 51.7132H18.7269C18.468 51.7132 18.3682 51.6136 18.3682 51.355V17.3318ZM23.9851 34.1347C24.7143 34.1845 25.2961 34.1845 26.5573 34.1845C30.2551 34.1845 33.744 32.8752 33.744 27.8727C33.744 23.857 31.2455 21.8195 27.0156 21.8195C25.7664 21.8195 24.567 21.8694 23.9851 21.9192V34.1347ZM51.2477 30.3657C48.7374 30.3657 47.8966 31.6252 47.8966 32.6641C47.8966 33.8121 48.4666 34.5925 51.8178 36.3216C56.7791 38.7315 58.349 41.0157 58.349 44.4123C58.349 49.4646 54.4777 52.1828 49.2575 52.1828C46.4859 52.1828 44.1251 51.6017 42.7643 50.8237C42.5671 50.7241 42.5173 50.5652 42.5173 50.3042V45.66C42.5173 45.3516 42.6669 45.2401 42.8759 45.4014C44.7713 46.6323 46.9847 47.2851 49.2456 47.28C51.756 47.28 52.7962 46.2411 52.7962 44.8227C52.7962 43.6747 52.0671 42.6856 48.887 41.0181C44.384 38.8691 42.503 36.6822 42.503 33.0246C42.503 28.9472 45.695 25.5625 51.224 25.5625C53.9458 25.5625 55.8624 25.9823 56.9145 26.4401C57.1734 26.6014 57.2233 26.8599 57.2233 27.071V31.4069C57.2233 31.6655 57.0617 31.8268 56.753 31.7153C55.3423 30.8875 53.2641 30.3562 51.2359 30.3562L51.2477 30.3657Z" fill="#F2C94C"/>
</svg>
