<svg width="29" height="29" viewBox="0 0 29 29" fill="none" xmlns="http://www.w3.org/2000/svg">
<path d="M29 27.4866L20.8965 19.3402C22.8338 17.0028 23.7962 14.0089 23.5838 10.9805C23.3715 7.95205 22.0007 5.1218 19.7561 3.0776C17.5116 1.0334 14.5659 -0.0676216 11.5309 0.00321806C8.49583 0.0740577 5.6047 1.31132 3.45801 3.45801C1.31132 5.6047 0.0740577 8.49583 0.00321806 11.5309C-0.0676216 14.5659 1.0334 17.5116 3.0776 19.7561C5.1218 22.0007 7.95205 23.3715 10.9805 23.5838C14.0089 23.7962 17.0028 22.8338 19.3402 20.8965L27.4866 29L29 27.4866ZM2.16734 11.8271C2.16734 9.91658 2.73388 8.04897 3.79531 6.46043C4.85673 4.87189 6.36538 3.63377 8.13047 2.90265C9.89556 2.17153 11.8378 1.98023 13.7116 2.35295C15.5854 2.72568 17.3066 3.64568 18.6576 4.99662C20.0085 6.34756 20.9285 8.06877 21.3012 9.94258C21.674 11.8164 21.4827 13.7586 20.7516 15.5237C20.0204 17.2888 18.7823 18.7975 17.1938 19.8589C15.6052 20.9203 13.7376 21.4869 11.8271 21.4869C9.26517 21.4869 6.80818 20.4691 4.99662 18.6576C3.18507 16.846 2.16734 14.389 2.16734 11.8271Z" fill="#F2C94C"/>
</svg>
