<svg width="104" height="83" viewBox="0 0 104 83" fill="none" xmlns="http://www.w3.org/2000/svg">
<path d="M95.565 23.5658L89.1586 33.1855C92.2481 39.3373 93.7607 46.1582 93.5607 53.037C93.3607 59.9159 91.4545 66.6377 88.0127 72.6003H15.8231C11.3499 64.853 9.49632 55.873 10.5372 46.9914C11.5781 38.1098 15.458 29.7995 21.6018 23.2925C27.7456 16.7854 35.8261 12.428 44.6455 10.8663C53.4649 9.30451 62.5536 10.6215 70.5643 14.6221L80.2 8.22632C70.3897 1.94604 58.7531 -0.868163 47.1516 0.233845C35.55 1.33585 24.6538 6.29041 16.2059 14.305C7.75797 22.3196 2.24646 32.9311 0.552949 44.4422C-1.14056 55.9533 1.08178 67.6988 6.8645 77.8001C7.77344 79.3719 9.07857 80.6788 10.6502 81.591C12.2218 82.5032 14.0052 82.989 15.8231 82.9999H87.9606C89.7962 83.0072 91.6011 82.5301 93.1926 81.617C94.7841 80.7039 96.1056 79.3871 97.0234 77.8001C101.822 69.5007 104.231 60.0389 103.983 50.4591C103.734 40.8794 100.839 31.5544 95.6171 23.5138L95.565 23.5658ZM44.574 59.1327C45.5414 60.0996 46.6903 60.8667 47.9549 61.39C49.2195 61.9134 50.575 62.1828 51.944 62.1828C53.3129 62.1828 54.6684 61.9134 55.933 61.39C57.1976 60.8667 58.3465 60.0996 59.314 59.1327L88.794 14.9861L44.574 44.4172C43.6054 45.383 42.8371 46.53 42.3128 47.7925C41.7886 49.055 41.5188 50.4082 41.5188 51.7749C41.5188 53.1416 41.7886 54.4949 42.3128 55.7574C42.8371 57.0199 43.6054 58.1668 44.574 59.1327Z" fill="#F2C94C"/>
</svg>
