<svg width="21" height="20" viewBox="0 0 21 20" fill="none" xmlns="http://www.w3.org/2000/svg">
<path d="M20.3018 9.58L10.9268 0.58C10.5518 0.22 10.0309 0 9.458 0H2.16634C1.02051 0 0.0830078 0.9 0.0830078 2V9C0.0830078 9.55 0.312168 10.05 0.697588 10.42L10.0726 19.42C10.4476 19.78 10.9684 20 11.5413 20C12.1143 20 12.6351 19.78 13.0101 19.41L20.3018 12.41C20.6872 12.05 20.9163 11.55 20.9163 11C20.9163 10.45 20.6768 9.94 20.3018 9.58ZM3.72884 5C2.86426 5 2.16634 4.33 2.16634 3.5C2.16634 2.67 2.86426 2 3.72884 2C4.59342 2 5.29134 2.67 5.29134 3.5C5.29134 4.33 4.59342 5 3.72884 5Z" fill="#F2C94C"/>
</svg>
