<svg width="78" height="75" viewBox="0 0 78 75" fill="none" xmlns="http://www.w3.org/2000/svg">
<path d="M64.1871 1.04198e-05H13.8129C11.9983 -0.00220434 10.2011 0.348665 8.52427 1.03252C6.8474 1.71638 5.32379 2.7198 4.0407 3.98529C2.75761 5.25079 1.74025 6.75351 1.04688 8.40738C0.353513 10.0613 -0.00223499 11.8338 1.05647e-05 13.6235V61.3765C-0.00223499 63.1662 0.353513 64.9387 1.04688 66.5926C1.74025 68.2465 2.75761 69.7492 4.0407 71.0147C5.32379 72.2802 6.8474 73.2836 8.52427 73.9675C10.2011 74.6513 11.9983 75.0022 13.8129 75H64.1871C66.0017 75.0022 67.7989 74.6513 69.4757 73.9675C71.1526 73.2836 72.6762 72.2802 73.9593 71.0147C75.2424 69.7492 76.2598 68.2465 76.9531 66.5926C77.6465 64.9387 78.0022 63.1662 78 61.3765V13.6235C78.0022 11.8338 77.6465 10.0613 76.9531 8.40738C76.2598 6.75351 75.2424 5.25079 73.9593 3.98529C72.6762 2.7198 71.1526 1.71638 69.4757 1.03252C67.7989 0.348665 66.0017 -0.00220434 64.1871 1.04198e-05ZM74.7119 60.1264C74.7209 61.6549 74.4235 63.1701 73.8368 64.5849C73.2501 65.9996 72.3857 67.2861 71.2933 68.3702C70.2008 69.4544 68.9019 70.3149 67.4711 70.9023C66.0404 71.4897 64.506 71.7924 62.9562 71.7931H15.0462C11.9195 71.7886 8.92206 70.5616 6.7111 68.3809C4.50015 66.2003 3.25605 63.244 3.25153 60.1601V14.8375C3.25605 11.7536 4.50015 8.79731 6.7111 6.61667C8.92206 4.43603 11.9195 3.20899 15.0462 3.20454H62.9172C66.0452 3.20518 69.0448 4.43099 71.2566 6.61246C73.4684 8.79392 74.7113 11.7524 74.7119 14.8375V60.1264ZM30.8383 35.096L39.9421 52.3375C40.1078 52.5995 40.0079 52.8495 39.7495 52.8495H34.0874C33.7339 52.8495 33.5682 52.763 33.4146 52.436C31.3355 48.205 29.2125 43.974 27.0408 39.428H26.9798C24.9814 43.8055 22.9199 48.1548 20.7961 52.4745C20.6474 52.7245 20.4817 52.8231 20.2136 52.8231H14.8537C14.5246 52.8231 14.5002 52.5611 14.666 52.3735L23.565 35.6441L14.9585 18.7176C14.7537 18.4555 14.9585 18.2656 15.1462 18.2656H20.7327C21.0618 18.2656 21.191 18.3305 21.3177 18.6142C23.3918 22.8787 25.4191 27.1653 27.3991 31.4732H27.46C29.3515 27.2421 31.4355 22.8476 33.439 18.6526C33.6048 18.3906 33.7047 18.2271 34.024 18.2271H39.2523C39.518 18.2271 39.6203 18.4291 39.457 18.6791L30.8383 35.096ZM41.5386 40.3175C41.5386 32.8555 46.567 27.0186 54.5642 27.0186C55.2491 27.0186 55.6049 27.0186 56.2533 27.0835V18.5949C56.2533 18.393 56.4166 18.268 56.5824 18.268H61.7107C61.9764 18.268 62.0422 18.3666 62.0422 18.518V47.955C62.0422 48.818 62.0422 49.907 62.2079 51.0826C62.2079 51.2845 62.1421 51.3446 61.9422 51.448C59.3435 52.6659 56.5029 53.2989 53.6258 53.3015C46.567 53.3376 41.5386 49.044 41.5386 40.3175ZM56.2557 32.115C55.6554 31.8888 55.0166 31.7786 54.374 31.7905C50.2767 31.7905 47.4201 34.9061 47.4201 40.0675C47.4201 45.9645 50.3377 48.33 54.0206 48.33C54.7933 48.33 55.6464 48.2435 56.2557 47.9814V32.115Z" fill="#F2C94C"/>
</svg>
