<svg width="21" height="21" viewBox="0 0 21 21" fill="none" xmlns="http://www.w3.org/2000/svg">
<path d="M20.1692 16.344L10.5196 20.9293C10.4058 20.976 10.2833 21 10.1594 21C10.0356 21 9.91301 20.976 9.79921 20.9293L0.149163 16.344C-0.0472656 16.2503 -0.0472656 16.0965 0.149163 16.0023L2.46014 14.9064C2.57413 14.8598 2.69684 14.8357 2.82084 14.8357C2.94484 14.8357 3.06755 14.8598 3.18153 14.9064L9.79921 18.047C9.91295 18.0939 10.0355 18.118 10.1594 18.118C10.2833 18.118 10.4059 18.0939 10.5196 18.047L17.1373 14.9064C17.2512 14.8597 17.3738 14.8357 17.4977 14.8357C17.6217 14.8357 17.7443 14.8597 17.8582 14.9064L20.1692 16.0047C20.368 16.0965 20.368 16.2503 20.1692 16.344ZM20.1692 9.94419L17.8582 8.84591C17.7443 8.79928 17.6217 8.77523 17.4977 8.77523C17.3738 8.77523 17.2512 8.79928 17.1373 8.84591L10.5196 11.9903C10.4057 12.0367 10.2832 12.0606 10.1594 12.0606C10.0356 12.0606 9.91307 12.0367 9.79921 11.9903L3.18153 8.84591C3.06755 8.79929 2.94484 8.77525 2.82084 8.77525C2.69684 8.77525 2.57413 8.79929 2.46014 8.84591L0.149163 9.94419C-0.0472656 10.0379 -0.0472656 10.1922 0.149163 10.2868L9.79921 14.8712C9.91301 14.9178 10.0356 14.9419 10.1594 14.9419C10.2833 14.9419 10.4058 14.9178 10.5196 14.8712L20.1692 10.2868C20.368 10.1922 20.368 10.0384 20.1692 9.94419ZM0.149163 4.61356L9.79872 8.84591C10.0303 8.93263 10.2876 8.93263 10.5191 8.84591L20.1692 4.61356C20.3656 4.52637 20.3656 4.38434 20.1692 4.29762L10.5191 0.0657496C10.2878 -0.0219165 10.0301 -0.0219165 9.79872 0.0657496L0.149163 4.29762C-0.049721 4.38434 -0.049721 4.52637 0.149163 4.61356Z" fill="#F2C94C"/>
</svg>
