<svg width="54" height="81" viewBox="0 0 54 81" fill="none" xmlns="http://www.w3.org/2000/svg">
<g clip-path="url(#clip0)">
<path d="M26.5 67.5C26.5 74.6759 20.6759 80.5 13.5 80.5C6.32414 80.5 0.5 74.6759 0.5 67.5C0.5 60.3241 6.32414 54.5 13.5 54.5H26.5V67.5Z" fill="#F4C859" stroke="#401303"/>
<path d="M0.5 40.5C0.5 33.3241 6.32414 27.5 13.5 27.5H26.5V53.5H13.5C6.32414 53.5 0.5 47.6759 0.5 40.5Z" fill="#F4C859" stroke="#401303"/>
<g filter="url(#filter0_dd)">
<path d="M0 13.5C0 6.048 6.048 0 13.5 0H27V27H13.5C6.048 27 0 20.952 0 13.5Z" fill="#F4C859"/>
<path d="M0.5 13.5C0.5 6.32414 6.32414 0.5 13.5 0.5H26.5V26.5H13.5C6.32414 26.5 0.5 20.6759 0.5 13.5Z" stroke="#401303"/>
</g>
<path d="M27.5 0.5H40.5C47.6759 0.5 53.5 6.32414 53.5 13.5C53.5 20.6759 47.6759 26.5 40.5 26.5H27.5V0.5Z" fill="#F4C859" stroke="#401303"/>
<path d="M53.5 40.5C53.5 47.6759 47.6759 53.5 40.5 53.5C33.3241 53.5 27.5 47.6759 27.5 40.5C27.5 33.3241 33.3241 27.5 40.5 27.5C47.6759 27.5 53.5 33.3241 53.5 40.5Z" fill="#F4C859" stroke="#401303"/>
</g>
<defs>
<filter id="filter0_dd" x="-4" y="0" width="35" height="35" filterUnits="userSpaceOnUse" color-interpolation-filters="sRGB">
<feFlood flood-opacity="0" result="BackgroundImageFix"/>
<feColorMatrix in="SourceAlpha" type="matrix" values="0 0 0 0 0 0 0 0 0 0 0 0 0 0 0 0 0 0 127 0"/>
<feOffset dy="4"/>
<feGaussianBlur stdDeviation="2"/>
<feColorMatrix type="matrix" values="0 0 0 0 0 0 0 0 0 0 0 0 0 0 0 0 0 0 0.25 0"/>
<feBlend mode="normal" in2="BackgroundImageFix" result="effect1_dropShadow"/>
<feColorMatrix in="SourceAlpha" type="matrix" values="0 0 0 0 0 0 0 0 0 0 0 0 0 0 0 0 0 0 127 0"/>
<feOffset dy="4"/>
<feGaussianBlur stdDeviation="2"/>
<feColorMatrix type="matrix" values="0 0 0 0 0 0 0 0 0 0 0 0 0 0 0 0 0 0 0.25 0"/>
<feBlend mode="normal" in2="effect1_dropShadow" result="effect2_dropShadow"/>
<feBlend mode="normal" in="SourceGraphic" in2="effect2_dropShadow" result="shape"/>
</filter>
<clipPath id="clip0">
<rect width="54" height="81" fill="white"/>
</clipPath>
</defs>
</svg>
