<svg width="50" height="61" viewBox="0 0 50 61" fill="none" xmlns="http://www.w3.org/2000/svg">
<path d="M0.0909424 0L4.62932 54.8561L24.9955 60.9512L45.4147 54.8485L49.9601 0H0.0944771H0.0909424ZM41.5231 51.359L25.1086 56.2618V56.2884L25.0662 56.2732L25.0238 56.2884V56.2618L8.60924 51.359L4.72829 4.48753H45.4041L41.5231 51.359V51.359ZM32.6867 31.5575L31.9656 40.2811L24.9955 42.3078L18.043 40.2888L17.5976 34.9174H11.3309L12.2039 45.4848L25.0202 49.3057L37.7977 45.4848L39.5119 24.83H16.76L16.1909 17.9387H40.0775L40.6359 11.2112H9.36564L11.0516 31.5575H32.6867Z" fill="#F2C94C"/>
</svg>
