<svg width="104" height="84" viewBox="0 0 104 84" fill="none" xmlns="http://www.w3.org/2000/svg">
<path fill-rule="evenodd" clip-rule="evenodd" d="M98.8 0H5.2C3.82087 0 2.49823 0.553123 1.52304 1.53769C0.547856 2.52226 0 3.85761 0 5.25L0 78.75C0 80.1424 0.547856 81.4777 1.52304 82.4623C2.49823 83.4469 3.82087 84 5.2 84H98.8C100.179 84 101.502 83.4469 102.477 82.4623C103.452 81.4777 104 80.1424 104 78.75V5.25C104 3.85761 103.452 2.52226 102.477 1.53769C101.502 0.553123 100.179 0 98.8 0ZM93.6 73.5H10.4V10.5H93.6V73.5ZM74.438 46.6042L57.6368 55.0305L38.0328 23.0002L20.8 63H83.2L74.438 46.6042ZM68.9 36.75C70.6239 36.75 72.2772 36.0586 73.4962 34.8279C74.7152 33.5972 75.4 31.928 75.4 30.1875C75.4 28.447 74.7152 26.7778 73.4962 25.5471C72.2772 24.3164 70.6239 23.625 68.9 23.625C67.1761 23.625 65.5228 24.3164 64.3038 25.5471C63.0848 26.7778 62.4 28.447 62.4 30.1875C62.4 31.928 63.0848 33.5972 64.3038 34.8279C65.5228 36.0586 67.1761 36.75 68.9 36.75Z" fill="#F2C94C"/>
</svg>
