<svg width="79" height="78" viewBox="0 0 79 78" fill="none" xmlns="http://www.w3.org/2000/svg">
<path d="M39.5 0C61.3213 0 79 17.4549 79 39C79 60.5451 61.3213 78 39.5 78C17.6787 78 0 60.5451 0 39C0 17.4549 17.6787 0 39.5 0ZM31.642 51.987C32.2221 54.0954 32.1579 56.0503 31.5654 57.8151L31.3581 58.4001C31.2815 58.6024 31.1803 58.7925 31.1013 58.9729C30.626 59.9355 30.0115 60.8247 29.2769 61.6127C26.9736 64.077 23.7741 65.0154 22.3965 64.2281C20.9054 63.3774 21.6485 59.8869 24.3122 57.1033C27.1785 54.1198 31.2939 52.2015 31.2939 52.2015V52.1918L31.642 51.987ZM64.2764 16.6944C62.489 9.76219 50.8538 7.49044 39.8456 11.349C33.2886 13.6476 26.2058 17.2551 21.1004 21.9643C15.0297 27.5608 14.0669 32.4358 14.4669 34.4663C15.879 41.652 25.8453 46.3637 29.9484 49.842V49.8688C28.7362 50.4514 19.8932 54.8316 17.8219 59.3775C15.5976 64.1477 18.17 67.5651 19.8389 67.9965C25.0233 69.4176 30.3582 66.8265 33.2269 62.6364C35.9919 58.539 35.745 53.2838 34.5502 50.6927C36.182 50.2613 38.1126 50.0565 40.5813 50.349C47.5012 51.1363 48.8763 55.4287 48.5801 57.1813C48.2838 58.9339 46.8544 59.9601 46.3557 60.2526C45.8694 60.5451 45.7138 60.6328 45.7632 60.8376C45.8151 61.1301 46.0595 61.1301 46.4569 61.0789C46.9976 60.9911 50.0588 59.6188 50.2119 56.3038C50.3526 52.1016 46.3014 47.4313 39.1025 47.5191C36.1326 47.5849 34.2539 47.8238 32.9307 48.3576C32.8345 48.2249 32.7169 48.1088 32.5826 48.0139C28.1363 43.2924 19.8932 39.9799 20.2388 33.6814C20.345 31.3974 21.1794 25.3549 36.0413 18.0424C48.2295 12.0364 57.9638 13.7012 59.6351 17.3574C62.0545 22.5737 54.4532 32.2749 41.7638 33.6814C36.9276 34.2152 34.407 32.3749 33.7651 31.6899C33.0714 30.9514 32.9825 30.9026 32.7208 31.0562C32.3357 31.2439 32.5801 31.8825 32.7208 32.2749C33.1183 33.2499 34.6489 34.9538 37.325 35.8264C39.6383 36.5649 45.3238 36.9964 52.1375 34.3663C59.7882 31.4486 65.7552 23.3098 64.0295 16.4775L64.2764 16.6944Z" fill="#F2C94C"/>
</svg>
