<svg width="80" height="80" viewBox="0 0 80 80" fill="none" xmlns="http://www.w3.org/2000/svg">
<path d="M40 0C62.07 0 80 17.93 80 40C80 62.07 62.07 80 40 80C17.93 80 0 62.07 0 40C0 17.93 17.93 0 40 0ZM50.925 58.9325C49.699 59.6423 48.8052 60.81 48.4403 62.1788C48.0753 63.5476 48.269 65.0053 48.9787 66.2312C49.6885 67.4572 50.8563 68.351 52.225 68.716C53.5938 69.081 55.0515 68.8873 56.2775 68.1775C56.8848 67.8271 57.4169 67.3602 57.8433 66.8036C58.2697 66.2471 58.582 65.6118 58.7622 64.9342C58.9425 64.2566 58.9871 63.5502 58.8937 62.8553C58.8002 62.1604 58.5704 61.4908 58.2175 60.885C57.8681 60.2767 57.402 59.7434 56.8459 59.3157C56.2898 58.8881 55.6547 58.5746 54.977 58.3931C54.2994 58.2117 53.5926 58.1659 52.8972 58.2585C52.2018 58.3511 51.5316 58.5801 50.925 58.9325ZM40 55.6C37.7295 55.601 35.4859 55.1079 33.425 54.155L29.715 60.795C32.9127 62.3801 36.4335 63.2049 40.0025 63.205C42.15 63.205 44.235 62.905 46.2 62.345C46.3793 61.2492 46.7992 60.2067 47.4295 59.2924C48.0597 58.3782 48.8846 57.6149 49.845 57.0575C50.8072 56.5 51.8816 56.164 52.99 56.074C54.0985 55.9841 55.213 56.1424 56.2525 56.5375C60.3375 52.5479 62.7963 47.184 63.1525 41.485L55.535 41.38C55.1902 45.2625 53.4044 48.8753 50.5292 51.5071C47.6541 54.1389 43.8978 55.599 40 55.6ZM24.4 40C24.3986 37.4972 25.0001 35.0308 26.1537 32.8097C27.3074 30.5886 28.9791 28.6782 31.0275 27.24L27.135 20.7025C22.393 23.8525 18.9732 28.6344 17.525 34.14C18.394 34.8373 19.0946 35.7216 19.5746 36.7271C20.0546 37.7325 20.3017 38.8333 20.2975 39.9475C20.2975 42.2925 19.2175 44.3475 17.525 45.7425C18.9713 51.2523 22.3912 56.0388 27.135 59.1925L31.0275 52.6425C28.9779 51.2331 27.3031 49.345 26.1482 47.142C24.9933 44.9389 24.3932 42.4874 24.4 40ZM12.8 34.6625C9.845 34.6625 7.4625 37.045 7.4625 40C7.4625 42.955 9.845 45.3375 12.8 45.3375C15.755 45.3375 18.1375 42.955 18.1375 40C18.1375 37.045 15.755 34.6625 12.8 34.6625ZM40 24.4C43.8978 24.401 47.6541 25.8611 50.5292 28.4929C53.4044 31.1247 55.1902 34.7375 55.535 38.62L63.1525 38.5025C62.7851 32.8064 60.3281 27.4463 56.2525 23.45C54.22 24.2175 51.8775 24.1 49.845 22.9425C48.8826 22.3814 48.0566 21.6139 47.4263 20.6953C46.796 19.7767 46.3772 18.7298 46.2 17.63C44.18 17.0799 42.096 16.7999 40.0025 16.7975C36.4331 16.7947 32.9117 17.6196 29.715 19.2075L33.425 25.8475C35.486 24.8949 37.7295 24.4018 40 24.4025V24.4ZM50.925 21.0675C52.1533 21.7744 53.6116 21.9658 54.9807 21.5999C56.3498 21.2339 57.5182 20.3404 58.23 19.115C58.7588 18.1998 59.0043 17.1483 58.9356 16.0936C58.8668 15.0388 58.4869 14.0281 57.8439 13.1892C57.2008 12.3504 56.3234 11.721 55.3227 11.3807C54.322 11.0404 53.2429 11.0045 52.2217 11.2774C51.2006 11.5503 50.2833 12.1199 49.5858 12.9141C48.8883 13.7083 48.4419 14.6915 48.3032 15.7393C48.1644 16.7871 48.3394 17.8526 48.8061 18.801C49.2727 19.7494 50.0101 20.5381 50.925 21.0675Z" fill="#F2C94C"/>
</svg>
