<svg width="82" height="82" viewBox="0 0 82 82" fill="none" xmlns="http://www.w3.org/2000/svg">
<path d="M73.3516 23.3162C76.3121 28.7395 77.8588 34.8212 77.8487 41C77.8487 54.5992 70.4944 66.4789 59.5371 72.857L70.7891 40.3056C72.898 35.0473 73.5924 30.8423 73.5924 27.1061C73.5924 25.7173 73.5002 24.436 73.3516 23.3162ZM46.084 23.6775C48.3006 23.5699 50.2891 23.3162 50.2891 23.3162C52.2776 23.0625 52.0521 20.1387 50.061 20.2463C50.061 20.2463 44.0673 20.6999 40.2236 20.6999C36.5925 20.6999 30.4809 20.1925 30.4809 20.1925C28.4924 20.0849 28.2259 23.1163 30.2272 23.2214C30.2272 23.2214 32.0697 23.4213 34.071 23.5289L39.811 39.2498L31.7109 63.4475L18.2988 23.5673C20.5154 23.4751 22.5167 23.2342 22.5167 23.2342C24.5052 22.9805 24.2797 20.0567 22.2886 20.1643C22.2886 20.1643 16.3231 20.6435 12.4666 20.6435C11.7849 20.6435 10.9726 20.6179 10.1167 20.5897C16.7767 10.7522 28.1337 4.14612 41 4.14612C50.5966 4.14612 59.3244 7.80281 65.8921 13.8221C65.7307 13.8221 65.5846 13.7965 65.4104 13.7965C61.7947 13.7965 59.2168 16.9458 59.2168 20.336C59.2168 23.3802 60.9798 25.9556 62.8479 28.9844C64.2496 31.4393 65.8767 34.604 65.8767 39.155C65.8767 42.2787 64.6749 45.961 63.0734 51.0476L59.4039 63.2861L46.084 23.6211V23.6775ZM41 77.8487C37.3843 77.8487 33.8865 77.3286 30.5886 76.3548L41.6406 44.2159L52.972 75.2606C53.0514 75.4477 53.1462 75.6066 53.2385 75.768C49.3066 77.1511 45.1681 77.8556 41 77.8513V77.8487ZM4.13844 41C4.13844 35.6623 5.28644 30.5758 7.32875 25.9991L24.9049 74.1793C12.6254 68.2009 4.13844 55.5883 4.13844 41ZM41 0C18.4039 0 0 18.4039 0 41C0 63.5961 18.4039 82 41 82C63.5961 82 82 63.5961 82 41C82 18.4039 63.5961 0 41 0Z" fill="#F2C94C"/>
</svg>
